<?xml version="1.0" encoding="UTF-8"?><svg id="Layer_2" xmlns="http://www.w3.org/2000/svg" viewBox="0 0 616.04 73.42"><defs><style>.cls-1{fill:#f9a12d;}.cls-2{fill:#fff;}.cls-3{fill:#686a6c;}</style></defs><g id="Layer_1-2"><polygon class="cls-2" points="314.27 40.2 314.27 31.8 294.36 31.8 285.83 31.8 276.71 31.8 276.71 40.2 314.27 40.2"/><polygon class="cls-2" points="525.46 31.8 525.46 40.2 563.02 40.2 563.02 31.8 546.96 31.8 534.58 31.8 525.46 31.8"/><rect class="cls-2" x="152.52" y=".78" width="9.12" height="39.42"/><polygon class="cls-2" points="206.05 25.32 184.69 .78 176.83 .78 176.83 40.2 185.95 40.2 185.95 15.6 207.19 40.2 215.11 40.2 215.11 .78 206.05 .78 206.05 25.32"/><polygon class="cls-2" points="226.74 9.18 241.32 9.18 241.32 40.2 250.44 40.2 250.44 9.18 265.02 9.18 265.02 .78 226.74 .78 226.74 9.18"/><polygon class="cls-2" points="294.36 24.66 306.95 24.66 306.95 16.26 294.36 16.26 285.83 16.26 276.71 16.26 276.71 24.66 285.83 24.66 294.36 24.66"/><polygon class="cls-2" points="294.36 9.18 314.27 9.18 314.27 .78 276.71 .78 276.71 9.18 285.83 9.18 294.36 9.18"/><path class="cls-2" d="m362.59,30.51c1.58-3.14,2.37-6.49,2.37-10.05,0-1.16-.08-2.2-.24-3.12l-.12-.72h-20.4l10.62,8.46c-.8,2.08-2.05,3.77-3.75,5.07s-3.69,1.95-5.97,1.95c-2.16,0-4.02-.54-5.58-1.62-1.56-1.08-2.75-2.51-3.57-4.29-.82-1.78-1.23-3.69-1.23-5.73s.4-3.9,1.2-5.7c.8-1.8,1.99-3.25,3.57-4.35,1.58-1.1,3.45-1.65,5.61-1.65,1.76,0,3.37.4,4.83,1.2,1.46.8,2.67,1.9,3.63,3.3l.3.42,10.14-.18-.42-1.02c-1.44-3.76-3.8-6.78-7.08-9.06-3.28-2.28-7.08-3.42-11.4-3.42-4.04,0-7.57.96-10.59,2.88-3.02,1.92-5.32,4.44-6.9,7.56s-2.37,6.46-2.37,10.02.79,6.91,2.37,10.05c1.58,3.14,3.88,5.67,6.9,7.59,3.02,1.92,6.55,2.88,10.59,2.88s7.62-.96,10.62-2.88,5.29-4.45,6.87-7.59Z"/><path class="cls-2" d="m387.2,40.2v-15.54h10.98l9.24,15.54h10.26l-9-15c-.08-.2-.17-.36-.27-.48-.1-.12-.19-.24-.27-.36,2.84-.56,5.04-1.91,6.6-4.05,1.56-2.14,2.34-4.61,2.34-7.41,0-2.2-.45-4.22-1.35-6.06-.9-1.84-2.24-3.31-4.02-4.41-1.78-1.1-3.93-1.65-6.45-1.65h-27.18v8.4h27.18c.84,0,1.5.27,1.98.81.48.54.72,1.27.72,2.19v1.08c0,.88-.24,1.6-.72,2.16-.48.56-1.14.84-1.98.84h-27.18v23.94h9.12Z"/><path class="cls-2" d="m437.98,40.2l3.72-9.66h16.5l3.78,9.66h9.78L456.16.78h-12.18l-15.66,39.42h9.66Zm11.88-30.6l5.22,12.54h-10.2l4.98-12.54Z"/><polygon class="cls-2" points="475.49 9.18 490.07 9.18 490.07 40.2 499.19 40.2 499.19 9.18 513.77 9.18 513.77 .78 475.49 .78 475.49 9.18"/><polygon class="cls-2" points="525.46 9.18 534.58 9.18 538.38 9.18 563.02 9.18 563.02 .78 525.46 .78 525.46 9.18"/><polygon class="cls-2" points="525.46 16.26 525.46 24.66 534.58 24.66 546.96 24.66 555.7 24.66 555.7 16.26 538.38 16.26 534.58 16.26 525.46 16.26"/><path class="cls-2" d="m613.61,10.68c-1.62-3-3.93-5.4-6.93-7.2s-6.5-2.7-10.5-2.7h-19.14v39.42h19.14c3.96,0,7.45-.9,10.47-2.7,3.02-1.8,5.34-4.21,6.96-7.23,1.62-3.02,2.43-6.29,2.43-9.81s-.81-6.78-2.43-9.78Zm-8.25,15.39c-.84,1.74-2.05,3.13-3.63,4.17-1.58,1.04-3.43,1.56-5.55,1.56h-10.02V9.18h10.02c2.12,0,3.97.52,5.55,1.56,1.58,1.04,2.79,2.43,3.63,4.17.84,1.74,1.26,3.59,1.26,5.55s-.42,3.87-1.26,5.61Z"/><polygon class="cls-2" points="418.11 57.13 414.41 57.13 414.41 73.1 426.96 73.1 426.96 69.7 418.11 69.7 418.11 57.13"/><path class="cls-2" d="m443.47,57.98c-1.22-.78-2.65-1.17-4.29-1.17s-3.07.39-4.29,1.17c-1.22.78-2.16,1.8-2.8,3.06-.64,1.26-.96,2.62-.96,4.06s.32,2.8.96,4.07c.64,1.27,1.57,2.3,2.8,3.08,1.22.78,2.65,1.17,4.29,1.17s3.07-.39,4.29-1.17c1.22-.78,2.15-1.8,2.8-3.08.64-1.27.96-2.63.96-4.07s-.32-2.8-.96-4.06c-.64-1.26-1.57-2.28-2.8-3.06Zm-.56,9.44c-.33.72-.82,1.3-1.46,1.74-.64.44-1.4.66-2.27.66s-1.63-.22-2.26-.66c-.63-.44-1.11-1.02-1.45-1.74-.33-.72-.5-1.5-.5-2.32s.16-1.58.49-2.31c.32-.73.81-1.32,1.45-1.76.64-.45,1.4-.67,2.27-.67s1.63.22,2.27.67c.64.45,1.13,1.03,1.46,1.76.33.73.5,1.5.5,2.31s-.17,1.6-.5,2.32Z"/><polygon class="cls-2" points="465.51 66.37 462.69 60.19 459.23 60.19 456.58 66.37 455.44 57.13 451.82 57.13 453.69 73.1 457.39 73.1 460.93 64.52 464.56 73.1 468.23 73.1 470.08 57.13 466.45 57.13 465.51 66.37"/><path class="cls-2" d="m492.49,69.65l-4.98-12.52h-3.94l6.34,15.97h4.93l6.32-15.97h-3.91c-3.13,7.89-4.72,12.07-4.76,12.52Z"/><path class="cls-2" d="m516.93,57.98c-1.22-.78-2.65-1.17-4.29-1.17s-3.07.39-4.29,1.17c-1.22.78-2.16,1.8-2.8,3.06-.64,1.26-.96,2.62-.96,4.06s.32,2.8.96,4.07c.64,1.27,1.57,2.3,2.8,3.08,1.22.78,2.65,1.17,4.29,1.17s3.07-.39,4.29-1.17c1.22-.78,2.16-1.8,2.8-3.08.64-1.27.96-2.63.96-4.07s-.32-2.8-.96-4.06c-.64-1.26-1.57-2.28-2.8-3.06Zm-.56,9.44c-.33.72-.82,1.3-1.46,1.74-.64.44-1.4.66-2.27.66s-1.63-.22-2.26-.66c-.63-.44-1.11-1.02-1.45-1.74-.33-.72-.5-1.5-.5-2.32s.16-1.58.49-2.31c.32-.73.81-1.32,1.45-1.76.64-.45,1.4-.67,2.27-.67s1.63.22,2.27.67c.64.45,1.13,1.03,1.46,1.76.33.73.5,1.5.5,2.31s-.17,1.6-.5,2.32Z"/><polygon class="cls-2" points="530.1 57.13 526.4 57.13 526.4 73.1 538.95 73.1 538.95 69.7 530.1 69.7 530.1 57.13"/><polygon class="cls-2" points="540.53 60.54 546.44 60.54 546.44 73.1 550.13 73.1 550.13 60.54 556.04 60.54 556.04 57.13 540.53 57.13 540.53 60.54"/><path class="cls-2" d="m564.38,57.13l-6.34,15.97h3.91l1.51-3.91h6.69l1.53,3.91h3.96l-6.32-15.97h-4.93Zm.36,8.65l2.02-5.08,2.12,5.08h-4.13Z"/><path class="cls-2" d="m595.01,63.55h-8.27l4.3,3.43c-.32.84-.83,1.53-1.52,2.05-.69.53-1.49.79-2.42.79-.88,0-1.63-.22-2.26-.66-.63-.44-1.11-1.02-1.45-1.74-.33-.72-.5-1.5-.5-2.32s.16-1.58.49-2.31c.32-.73.81-1.32,1.45-1.76.64-.45,1.4-.67,2.27-.67.71,0,1.37.16,1.96.49.59.32,1.08.77,1.47,1.34l.12.17,4.11-.07-.17-.41c-.58-1.52-1.54-2.75-2.87-3.67-1.33-.92-2.87-1.39-4.62-1.39-1.64,0-3.07.39-4.29,1.17-1.22.78-2.16,1.8-2.8,3.06-.64,1.26-.96,2.62-.96,4.06s.32,2.8.96,4.07c.64,1.27,1.57,2.3,2.8,3.08,1.22.78,2.65,1.17,4.29,1.17s3.09-.39,4.3-1.17c1.22-.78,2.14-1.8,2.78-3.08.64-1.27.96-2.63.96-4.07,0-.47-.03-.89-.1-1.26l-.05-.29Z"/><polygon class="cls-2" points="600.82 69.7 600.82 73.1 616.04 73.1 616.04 69.7 608.7 69.7 604.51 69.7 600.82 69.7"/><polygon class="cls-2" points="600.82 63.4 600.82 66.81 604.51 66.81 608.7 66.81 613.07 66.81 613.07 63.4 607.79 63.4 604.51 63.4 600.82 63.4"/><polygon class="cls-2" points="600.82 60.54 604.51 60.54 607.79 60.54 616.04 60.54 616.04 57.13 600.82 57.13 600.82 60.54"/><polygon class="cls-3" points="54.23 50.28 54.23 50.28 54.23 50.28 54.23 50.28"/><path class="cls-2" d="m28.22,66.09c1.35,1.35,3.19,2.11,5.1,2.11s3.75-.76,5.1-2.11l15.81-15.81-20.91.5-15.9-15.9h0s0,0,0,0l15.9-15.9,47.11,47.11c1.35,1.35,3.19,2.11,5.1,2.11s3.75-.76,5.1-2.11l26.11-26.11c2.82-2.82,2.82-7.39,0-10.21L90.64,3.67c-2.82-2.82-7.39-2.82-10.21,0l-15.81,15.81,20.91-.5,15.9,15.9-15.9,15.9L38.42,3.67c-2.82-2.82-7.39-2.82-10.21,0L2.11,29.78c-1.35,1.35-2.11,3.19-2.11,5.1s.76,3.75,2.11,5.1l26.11,26.11Z"/><polygon class="cls-1" points="64.62 19.48 84.53 23.98 101.43 34.88 85.53 18.98 64.62 19.48"/><polygon class="cls-1" points="33.32 50.78 54.23 50.28 54.23 50.28 54.23 50.28 54.23 50.28 34.32 45.78 17.42 34.88 17.42 34.88 33.32 50.78"/></g></svg>